<svg xmlns="http://www.w3.org/2000/svg" viewBox="0 0 739.58 742.22"><defs><style>.cls-1{fill:#d11919;stroke:#000;stroke-miterlimit:10;}.cls-2{fill:#99dd4a;}.cls-3{fill:#e25044;}.cls-4{fill:#fff;}</style></defs><title>未标题-2</title><g id="图层_3" data-name="图层 3"><path class="cls-1" d="M484.54,301" transform="translate(-168.69 -102.44)"/><path class="cls-2" d="M484.54,301c6.4-15.25,16.59-38.57,30.47-66.45,40.73-81.79,61.23-98.34,70.37-105,10.72-7.8,34.45-22.87,66.31-26.38,19.82-2.18,33,1.2,36.64,2.21,7.32,2,23.68,6.74,36.88,21.07,12.13,13.15,17.16,29.56,18.33,33.68,3.82,13.37,2.56,21.5,9.62,26.8,4.44,3.32,8.3,2.66,18.22,3.79a159,159,0,0,1,31.91,7.55c23,8.38,34.74,30,35.21,30.86,12.71,24.07,5,49.16,1.64,59.89a116.8,116.8,0,0,1-16.83,32.16C787,369,657.33,427.07,651.79,429.52l-12.18-9.35Z" transform="translate(-168.69 -102.44)"/><path class="cls-2" d="M812.44,324.69a86.35,86.35,0,0,1,26.24,0c6.48,1,30.23,5.09,49.28,25.83,7.22,7.85,19.61,21,20.29,40.78.62,18.15-8.92,31.39-12.91,36.77-10.82,14.59-25.08,21.56-35.61,25.89C807.44,475.49,700,492.36,690.9,493.78l1.16-1.63Z" transform="translate(-168.69 -102.44)"/><polygon class="cls-2" points="482.45 320.96 522.2 391.33 643.75 222.25 482.45 320.96"/></g><g id="钢笔"><path class="cls-3" d="M485,302.36c-12.37-1.53-25-1.94-25-1.94a292.36,292.36,0,0,0-46.21,2.3s-32.75,4.15-59.72,13.41c-69.29,23.78-119.58,125.58-131.61,149.94-30.19,61.12-39.86,114.32-44.29,139.72-5.41,31-9.47,103.72-9.47,103.72s.77,32.34.58,52c.58,23.63-.64,22.82,5.5,36.14a66.92,66.92,0,0,0,10.3,15.72,68.52,68.52,0,0,0,12.68,10.78A75.34,75.34,0,0,0,213.47,832c13,4.89,16.6,4.45,29.54,6.7s42.83,5.46,51.43,5.82c23.08,1,70.62-1.79,132.81-21.46,36.32-11.49,104.93-33.93,171.55-91.53,37.32-32.27,55.92-59.93,60.66-67.15a297.13,297.13,0,0,0,38.18-85.66c7.51-28.06,14.15-52.88,8.69-84.75-4.79-28-16.42-46.85-28.49-66.44-10.12-16.42-31.56-50.44-73.19-79.82C604.65,347.69,552.19,310.67,485,302.36Z" transform="translate(-168.69 -102.44)"/></g><polygon class="cls-4" points="382.12 532.12 446.71 573.08 438.69 576.84 382.12 532.12"/><polygon class="cls-4" points="338.38 587.45 387.09 620.39 380.36 623.16 338.38 587.45"/><polygon class="cls-4" points="311.59 630.92 347.37 654.66 338.4 655.14 311.59 630.92"/></svg>